HIERARCHY
ROOT Hips
{
	OFFSET -0.179506 -22.333345 2.821913
	CHANNELS 6 Xposition Yposition Zposition Zrotation Yrotation Xrotation 
	JOINT LeftUpLeg
	{
		OFFSET 6.951974 -9.140623 -0.681533
		CHANNELS 3 Zrotation Yrotation Xrotation
		JOINT LeftLeg
		{
			OFFSET 3.427654 -37.519855 -0.449580
			CHANNELS 3 Zrotation Yrotation Xrotation
			JOINT LeftFoot
			{
				OFFSET -1.359570 -39.796059 -4.369333
				CHANNELS 3 Zrotation Yrotation Xrotation
				JOINT LeftToe
				{
					OFFSET 2.635814 -5.579078 11.928840
					CHANNELS 3 Zrotation Yrotation Xrotation
					End Site
					{
						OFFSET 0.000000 0.000000 0.000000
					}
				}
			}
		}
	}
	JOINT RightUpLeg
	{
		OFFSET -6.767048 -9.052170 -0.431982
		CHANNELS 3 Zrotation Yrotation Xrotation
		JOINT RightLeg
		{
			OFFSET -3.829005 -38.256897 -0.885003
			CHANNELS 3 Zrotation Yrotation Xrotation
			JOINT RightFoot
			{
				OFFSET 1.577377 -39.841461 -4.231180
				CHANNELS 3 Zrotation Yrotation Xrotation
				JOINT RightToe
				{
					OFFSET -2.537174 -4.814398 12.334795
					CHANNELS 3 Zrotation Yrotation Xrotation
					End Site
					{
						OFFSET 0.000000 0.000000 0.000000
					}
				}
			}
		}
	}
	JOINT Spine
	{
		OFFSET -0.253288 10.896323 -2.669631
		CHANNELS 3 Zrotation Yrotation Xrotation
		JOINT Spine1
		{
			OFFSET 0.548704 13.518043 0.109247
			CHANNELS 3 Zrotation Yrotation Xrotation
			JOINT Spine2
			{
				OFFSET 0.145701 5.292222 2.542457
				CHANNELS 3 Zrotation Yrotation Xrotation
				JOINT Neck
				{
					OFFSET -0.277840 21.387037 -4.285703
					CHANNELS 3 Zrotation Yrotation Xrotation
					JOINT Head
					{
						OFFSET 0.515184 6.496960 5.134897
						CHANNELS 3 Zrotation Yrotation Xrotation
						End Site
						{
							OFFSET 0.000000 0.000000 0.000000
						}
					}
				}
				JOINT LeftShoulder
				{
					OFFSET 7.884473 12.174932 -3.408961
					CHANNELS 3 Zrotation Yrotation Xrotation
					JOINT LeftArm
					{
						OFFSET 9.097692 3.046888 -0.886815
						CHANNELS 3 Zrotation Yrotation Xrotation
						JOINT LeftForeArm
						{
							OFFSET 25.961220 -1.277207 -2.745643
							CHANNELS 3 Zrotation Yrotation Xrotation
							JOINT LeftHand
							{
								OFFSET 24.923361 0.898606 -0.117091
								CHANNELS 3 Zrotation Yrotation Xrotation
								End Site
								{
									OFFSET 0.000000 0.000000 0.000000
								}
							}
						}
					}
				}
				JOINT RightShoulder
				{
					OFFSET -8.175920 11.883285 -3.861528
					CHANNELS 3 Zrotation Yrotation Xrotation
					JOINT RightArm
					{
						OFFSET -9.601238 3.255117 -0.914307
						CHANNELS 3 Zrotation Yrotation Xrotation
						JOINT RightForeArm
						{
							OFFSET -25.374195 -1.332924 -2.140099
							CHANNELS 3 Zrotation Yrotation Xrotation
							JOINT RightHand
							{
								OFFSET -25.529810 0.777228 -0.555919
								CHANNELS 3 Zrotation Yrotation Xrotation
								End Site
								{
									OFFSET 0.000000 0.000000 0.000000
								}
							}
						}
					}
				}
			}
		}
	}
}
MOTION
Frames: 13
Frame Time: 0.033333
24.249592 83.050911 24.772491 -0.004538 -5.853465 -1.527050 18.726539 3.030075 -48.651608 -12.756352 6.167100 76.231407 2.593720 11.846527 -33.988319 1.690888 -1.456633 -0.681605 -18.184321 -9.337237 -42.471122 1.325446 -5.904405 86.321384 1.583728 -12.159377 -42.959741 1.715053 0.858356 -3.270554 2.667821 6.007716 46.155208 -7.894645 6.165110 -11.468097 -1.536207 7.843022 2.164842 0.228855 -3.095317 -19.735094 7.637331 -10.489515 -30.910343 -21.832214 -6.456389 -6.203951 -24.562057 7.768655 -1.497081 6.096243 -17.231759 -26.403817 12.652192 -4.830656 -19.018274 13.673912 28.375439 1.913606 12.826039 21.629996 -7.368624 -8.585206 58.793139 -5.540808 -11.938623 11.852234 -8.196032 
24.086107 80.846756 24.028271 1.019549 -12.560909 -2.999317 18.458920 2.817215 -49.979979 -11.512597 7.772709 81.854034 2.659645 12.930582 -36.578813 1.396060 -1.272079 -0.535944 -19.379557 -7.681669 -46.558807 3.281134 -3.557627 90.118910 1.055386 -10.997574 -45.158586 1.818445 0.862627 -2.894928 3.443044 3.702131 48.581418 -7.060740 5.662648 -11.510066 -1.649665 7.194307 1.749773 0.269646 -5.593463 -19.270262 7.744272 -9.652031 -30.170660 -21.524528 -9.087936 -6.106352 -24.581162 6.172684 -3.019226 7.990556 -17.861941 -29.797162 11.717423 -4.005661 -18.397406 11.822927 29.502432 1.361886 10.794251 22.276388 -7.983750 -9.076032 60.883114 -6.265730 -9.594293 11.208884 -7.092791 
24.042233 80.058830 23.375082 1.679757 -19.876115 -3.863879 18.022533 2.825380 -49.165887 -10.466500 8.610911 84.293316 2.825459 13.866011 -38.021916 0.930773 -1.037006 -0.505003 -19.716705 -5.106756 -50.173575 6.583362 -1.309580 92.149385 0.514177 -9.614700 -44.746944 1.974777 0.692741 -2.636483 3.330725 1.377083 49.115970 -5.023373 4.538387 -11.286391 -1.336707 5.812949 1.741997 0.446538 -7.517827 -17.284617 8.556664 -9.275158 -28.681984 -20.400614 -12.019316 -5.753910 -21.047656 3.730137 -4.887077 10.622633 -21.080941 -32.307479 10.502652 -4.442998 -14.054415 10.491089 28.955545 0.767065 7.789497 20.371823 -8.658286 -12.309798 64.691677 -9.784210 -7.030980 11.512198 -5.537689 
24.015011 80.853180 23.154703 1.509897 -27.277677 -6.061341 17.439930 2.910321 -44.637900 -9.938456 8.194665 83.689140 2.072000 15.763779 -38.991102 0.678388 -0.946680 -0.779464 -19.757721 -2.930160 -49.972297 8.640431 -0.444928 91.090457 0.594637 -7.455495 -43.311816 2.066579 0.317767 -2.847518 2.717533 -0.253330 48.372939 -1.736901 2.762714 -10.777228 -0.731360 3.919543 1.815814 0.566087 -9.426229 -13.964118 9.077708 -9.890114 -26.345050 -17.472082 -14.841255 -5.711379 -11.731768 1.144764 -7.508756 11.952270 -25.800922 -32.890598 9.828722 -6.144650 -9.536508 9.463968 26.722242 -0.215520 2.472511 16.291360 -10.288445 -15.818444 61.459781 -16.585077 -4.959621 12.304889 -4.265418 
23.293121 82.909973 23.304977 0.836366 -33.531158 -8.216967 16.386250 3.255768 -38.776781 -10.527633 6.796689 80.581721 1.076506 18.208317 -39.026376 0.474466 -0.981966 -1.053149 -19.353762 -1.471807 -47.325193 9.906169 0.432590 87.535487 1.620777 -6.752047 -40.154069 1.975197 0.279343 -3.245448 2.296977 -1.730161 46.180801 1.385411 1.272709 -10.959875 -0.191390 1.864174 1.293886 0.220083 -11.669204 -9.704054 9.705540 -11.498162 -24.127285 -12.273672 -16.431144 -6.246722 -0.040013 0.083451 -9.697635 11.810552 -32.592670 -32.888127 9.117520 -7.114151 -6.048793 7.163475 23.755155 -1.103210 -4.999593 10.289821 -11.875726 -18.735168 59.518888 -23.976518 -4.306175 12.651683 -3.036690 
22.044050 86.847382 23.652023 0.497359 -40.961372 -9.908743 14.774868 4.760054 -31.012067 -10.563451 6.012922 72.712505 1.143308 18.441372 -36.721664 0.220847 -0.787789 -1.300082 -19.313414 -0.727584 -42.804238 11.584455 3.030092 78.082527 3.106240 -6.452976 -31.883550 1.641994 0.186491 -3.562376 1.951414 -3.340968 40.261253 3.559457 0.096670 -12.436048 0.463841 -0.121552 2.252693 -0.590891 -13.745740 -5.194413 9.592517 -13.334078 -22.274720 -5.991028 -16.664533 -6.790397 9.826838 -0.770773 -11.557562 10.329457 -38.707956 -32.338656 10.061321 -8.232512 -6.382577 4.415785 20.428089 -2.398423 -9.591121 5.128056 -12.685049 -20.655848 58.447779 -28.684105 -6.453900 13.322858 -3.396996 
20.713245 92.712181 24.046919 2.104446 -52.106702 -13.510333 14.451325 8.101863 -18.183830 -10.284941 4.507694 60.421654 -0.420982 18.599944 -27.922878 -0.020724 -0.902331 -1.302602 -19.398530 -0.478371 -34.889970 12.558263 8.563292 62.568024 6.433372 -4.702033 -15.345417 1.333215 0.498569 -3.558023 1.949450 -5.603365 29.687509 5.956135 -1.420290 -13.484052 1.483024 -2.334096 4.195482 -0.371703 -15.495043 -0.152979 9.268856 -13.891545 -18.693389 0.041222 -16.016875 -5.765590 15.486261 -1.205360 -13.709852 6.802203 -40.531593 -28.501272 11.490746 -10.345391 -6.096295 1.837273 16.266489 -3.667607 -11.248772 0.859078 -13.816307 -22.614537 55.433718 -31.612534 -9.140994 13.668287 -3.157231 
19.103968 100.058121 24.538040 9.847747 -66.538677 -21.449255 14.006705 10.984457 -7.309561 -8.764514 3.779179 48.996434 -2.515918 19.552526 -13.546691 -0.341252 -0.777269 -0.815511 -18.893419 -1.291077 -29.840119 9.175769 10.525478 48.628264 9.288474 -6.346815 -0.176021 0.882334 0.640799 -3.456926 2.252027 -7.071363 21.449115 7.195835 -2.493213 -14.160437 2.190627 -3.237650 5.886995 0.950751 -19.673440 4.389248 10.171453 -14.729171 -13.068688 3.273694 -14.467360 -3.851163 17.172952 -1.779755 -15.800851 3.270049 -36.663886 -24.910505 10.122274 -11.798932 -4.896236 0.092454 13.346722 -4.376174 -10.889807 -0.024130 -14.884433 -18.295317 49.222851 -28.273257 -9.303478 13.005015 -2.298312 
16.815825 107.540894 24.307459 76.288506 -81.538065 -86.709452 10.502717 11.553586 -2.457824 -8.127311 5.468988 43.859378 -3.272649 18.995271 0.069274 -0.970372 -0.570839 -0.514222 -15.354560 -1.201321 -29.636438 3.834545 6.785779 39.065567 9.896648 -10.272713 14.168026 0.488773 0.554341 -3.079828 3.206534 -7.772658 17.519471 7.742347 -2.978740 -12.865227 3.322509 -3.255820 5.734728 0.484609 -23.419788 8.044475 12.582636 -13.489913 -12.147669 3.911961 -12.624247 -3.183758 18.020114 -0.493808 -16.589917 -0.354299 -30.329210 -21.921702 6.070534 -12.249042 1.074828 -1.104710 12.126458 -4.247879 -10.859575 0.226940 -15.832362 -11.711475 41.911193 -24.242590 -5.760578 11.850554 -0.928041 
13.811660 113.532410 22.568138 153.750614 -65.408352 -163.120509 6.471458 11.291729 -3.431216 -9.721771 8.117969 47.399494 -3.149808 17.632663 5.466886 -1.320074 -0.577793 -0.229408 -10.531285 -2.896193 -32.056227 1.723061 -1.541817 40.155712 6.544752 -12.093509 17.835833 0.268824 0.380916 -2.969189 3.610706 -7.127232 17.511955 7.767772 -2.394670 -11.601531 3.988772 -2.533615 4.734921 -0.511787 -24.778278 12.378277 14.671299 -15.250976 -13.231251 4.008628 -11.022438 -3.035765 19.705983 0.628706 -16.998582 -1.305940 -24.622886 -21.063660 2.914922 -11.346283 9.464346 -0.694162 12.243580 -3.297903 -10.615007 -0.168776 -16.172630 -6.316000 33.687256 -20.510481 -4.350643 10.560479 0.146282 
11.599592 117.510574 20.443892 163.067699 -42.312307 -172.320863 4.468265 8.829346 -7.628587 -11.501670 9.244925 53.778429 -2.446130 15.836408 4.481612 -1.182564 -0.665884 -0.119697 -6.562813 -4.270099 -33.213916 0.969052 -8.174653 49.034178 3.262535 -12.659536 15.172799 0.392663 0.352079 -2.814313 2.680596 -4.642798 19.957066 7.592652 -1.376933 -10.306968 4.603500 -1.387327 4.239006 -0.054738 -25.151963 15.144617 16.087828 -18.051899 -14.061433 3.494241 -9.948043 -3.542784 19.359194 1.156537 -17.517286 -1.518657 -20.638355 -21.189495 1.992901 -9.322145 14.840098 0.206391 13.070161 -2.966449 -6.916284 1.227430 -15.267250 -5.199801 29.597956 -18.901192 -3.099309 8.844861 -1.752984 
10.394847 118.806335 18.527170 165.016365 -19.323315 -173.465981 4.388277 5.795574 -15.433697 -10.691808 10.696745 63.731717 -1.127796 15.573985 -0.128082 -0.847484 -0.815630 -0.016962 -5.279034 -5.364136 -31.032597 0.681776 -9.676045 53.955660 2.611946 -12.122879 8.766377 0.225715 0.469156 -2.832222 1.292190 -0.599094 24.230077 6.535052 -0.498917 -9.504517 4.846992 0.592523 4.872823 0.572205 -24.887369 15.912737 18.244118 -19.457407 -15.250418 2.673177 -10.102505 -5.350318 17.404973 0.662480 -17.153791 -0.326012 -20.733856 -24.058281 4.190204 -6.876944 13.073163 1.902988 14.952822 -2.282372 -1.669924 2.875750 -13.813016 -5.869662 29.557600 -19.251339 -2.445709 7.218994 -5.740443 
9.655774 118.094177 17.340508 166.262211 4.022345 -172.427601 6.803546 2.114239 -25.287013 -9.717363 10.504857 72.730722 0.402007 15.724678 -6.746886 -0.324687 -1.014076 -0.084738 -6.051201 -6.453340 -29.944503 1.341723 -10.496910 54.262163 2.971613 -10.197270 0.038210 -0.032052 0.674460 -2.855998 0.388628 4.014763 30.772310 5.038645 0.519191 -8.943414 5.005753 2.904723 5.992187 1.574990 -21.098173 14.285287 20.330202 -19.111872 -17.000827 1.717532 -11.607764 -6.996948 13.855796 -0.358572 -16.906695 2.635049 -23.795147 -27.427323 7.634873 -5.499152 8.792451 3.689965 18.660120 -0.875546 3.973512 6.420632 -12.965564 -4.605756 28.644167 -16.921473 -1.618834 5.937165 -7.854581 
